<svg xmlns="http://www.w3.org/2000/svg" width="580" height="206" viewBox="0 0 580 206" role="img" aria-labelledby="title desc">
<title id="title">Backend engineering — Java APIs and persistence</title>
<desc id="desc">Original geometric artwork connecting signals, software, and physical systems.</desc>
<style>@keyframes orbit{to{transform:rotate(360deg)}} @keyframes flow{to{stroke-dashoffset:-120}} .orbit{transform-origin:914px 229px;animation:orbit 48s linear infinite} .flow{animation:flow 14s linear infinite} @media(prefers-reduced-motion:reduce){.orbit,.flow{animation:none!important}}</style>
<rect width="580" height="206" rx="10" fill="#101d25"/><text x="26" y="36" fill="#e9bb7b" font-family="Arial, Helvetica, sans-serif" font-size="14" font-weight="500" letter-spacing="1.5">BACKEND ENGINEERING</text><text x="525" y="36" fill="#a5b7bb" font-family="Arial, Helvetica, sans-serif" font-size="14" font-weight="400" letter-spacing="0">02</text><path d="M26 53H554" fill="none" stroke="#33454b" stroke-width="1" /><rect x="26" y="75" width="61" height="25" rx="4" fill="#354132"/><text x="33" y="93" fill="#e9bb7b" font-family="Arial, Helvetica, sans-serif" font-size="13" font-weight="700" letter-spacing="0">GET</text><text x="101" y="93" fill="#f4f0e6" font-family="monospace" font-size="16" font-weight="400" letter-spacing="0">/applications</text><rect x="26" y="110" width="61" height="25" rx="4" fill="#354132"/><text x="33" y="128" fill="#e9bb7b" font-family="Arial, Helvetica, sans-serif" font-size="13" font-weight="700" letter-spacing="0">POST</text><text x="101" y="128" fill="#f4f0e6" font-family="monospace" font-size="16" font-weight="400" letter-spacing="0">/applications</text><rect x="26" y="145" width="61" height="25" rx="4" fill="#354132"/><text x="33" y="163" fill="#e9bb7b" font-family="Arial, Helvetica, sans-serif" font-size="13" font-weight="700" letter-spacing="0">GET</text><text x="101" y="163" fill="#f4f0e6" font-family="monospace" font-size="16" font-weight="400" letter-spacing="0">/applications/{id}</text><ellipse cx="490" cy="94" rx="39" ry="13" fill="#283a38" stroke="#e9bb7b"/><path d="M451 94V155C451 173 529 173 529 155V94 M451 124C451 142 529 142 529 124" fill="none" stroke="#e9bb7b" stroke-width="1.5" /><path d="M368 129H430" fill="none" stroke="#e9bb7b" stroke-width="1.5" class="flow" stroke-dasharray="5 7"/>
</svg>